<svg width="20" height="20" viewBox="0 0 20 20" fill="none" xmlns="http://www.w3.org/2000/svg">
<g clip-path="url(#clip0_2660_861)">
<path fill-rule="evenodd" clip-rule="evenodd" d="M7.75438 4.85147C5.76884 5.71751 4.38419 7.69808 4.38636 9.99951L4.38636 10.0036C4.38928 13.1029 6.90261 15.6138 10.0019 15.6138C13.1003 15.6138 15.6123 13.1025 15.613 10.0041L15.613 9.99877C15.613 9.99868 15.613 9.99886 15.613 9.99877C15.6129 7.69861 14.2289 5.71978 12.2452 4.85315L12.8457 3.47859C15.3562 4.57534 17.113 7.08106 17.113 9.99877L17.113 10.0044C17.113 10.0045 17.113 10.0044 17.113 10.0044C17.112 13.9311 13.9286 17.1138 10.0019 17.1138C6.07473 17.1138 2.89006 13.9322 2.88636 10.005L2.88636 10.0009C2.8836 7.08123 4.64157 4.57272 7.15469 3.47656L7.75438 4.85147Z" fill="#404553"/>
<path fill-rule="evenodd" clip-rule="evenodd" d="M10.7501 2.88647V10.7501H9.25012V2.88647H10.7501Z" fill="#404553"/>
</g>
<defs>
<clipPath id="clip0_2660_861">
<rect width="20" height="20" fill="white"/>
</clipPath>
</defs>
</svg>
